<?xml version="1.0" encoding="UTF-8" standalone="no"?>
<!DOCTYPE svg PUBLIC "-//W3C//DTD SVG 1.1//EN" "http://www.w3.org/Graphics/SVG/1.1/DTD/svg11.dtd">
<svg width="100%" height="100%" viewBox="0 0 839 839" version="1.1" xmlns="http://www.w3.org/2000/svg" xmlns:xlink="http://www.w3.org/1999/xlink" xml:space="preserve" xmlns:serif="http://www.serif.com/" style="fill-rule:evenodd;clip-rule:evenodd;stroke-linejoin:round;stroke-miterlimit:2;">
    <g id="_-000000ff" serif:id="#000000ff" transform="matrix(1,0,0,1,-111.64,-67.738)">
        <path d="M485.03,94.34C529.27,72.21 580.04,63.64 629.06,69.56C681.92,75.75 732.64,99.13 771.66,135.34C785.29,147.24 796.82,161.31 807.69,175.71C834.79,175.6 861.9,175.69 889,175.66C893.86,175.72 898.78,175.31 903.58,176.37C923.3,178.04 941.08,192.46 947.35,211.15C950.16,218.76 950.44,226.98 950.29,235C950.23,388.34 950.39,541.7 950.21,695.04C949.15,711.41 940.14,727.24 926.14,735.94C918.15,741.31 908.54,743.7 899.05,744.39C821.76,744.38 744.46,744.37 667.17,744.4C667.1,769.07 671.15,793.79 679.28,817.11C684.01,830.27 690.47,842.89 699.22,853.85C708.23,864.59 719.33,874.18 732.83,878.64C735.72,879.91 738.93,879.42 742,879.51C753.67,879.55 765.36,879.38 777.03,879.59C785.35,880.86 790.12,890.73 786.87,898.29C784.64,903.12 779.5,906.78 774.07,906.46C611.69,906.43 449.3,906.46 286.92,906.44C281.49,906.42 276.53,902.46 274.74,897.42C271.19,889.51 278.29,879.17 286.93,879.5C300.2,879.4 313.49,879.71 326.75,879.36C340.76,875.34 352.52,865.82 361.81,854.85C374.55,839.33 382.6,820.43 387.49,801.09C391.08,787.67 392.96,773.87 394.39,760.08C394.44,754.89 394.6,749.7 395.65,744.6C379.77,744.09 363.88,744.52 348,744.38C288,744.38 228.01,744.37 168.01,744.38C159.58,744.71 151.06,743.18 143.27,739.93C125.09,732.33 112.24,713.71 111.67,694C111.64,539 111.68,384 111.65,229C111.32,212.42 119.44,195.81 132.96,186.13C142.1,179.16 153.62,176.08 164.96,175.64C238.66,175.7 312.36,175.63 386.06,175.68C387.48,175.47 389.55,176.15 390.4,174.59C414.89,140.78 447.55,112.82 485.03,94.34M581.74,95.56C523.78,99.44 467.85,126.83 428.95,169.94C396.16,205.49 375.07,251.77 370.14,299.89C368.91,305.17 369.81,310.66 368.83,315.98C368.41,323.64 368.49,331.35 369.33,338.98C369.14,344.12 370,349.15 370.59,354.23C375.62,394.53 392.02,433.22 416.89,465.28C420.6,469.6 420.38,476.07 418.22,481.05C410.44,500.18 402.93,519.41 395.16,538.54C394.6,539.99 394.24,541.51 394.07,543.08C394.93,542.85 396.66,542.38 397.52,542.15C417.56,534.02 437.67,526.07 457.73,518C461.21,516.58 464.85,514.81 468.71,515.58C472.57,516.6 475.82,519.03 479.19,521.07C506.24,537.66 536.8,548.54 568.27,552.68C573.1,553.72 578.1,553.3 582.94,554.36C593.31,554.73 603.7,554.73 614.08,554.38C619.25,553.34 624.56,553.63 629.73,552.56C690.25,544.68 746.64,510.96 782.87,461.94C806.41,430.59 821.61,393.02 826.51,354.14C833.86,298.98 820.07,241.25 788.41,195.41C770.52,169.12 747.06,146.69 720.14,129.78C689.44,110.51 654.08,98.73 617.97,95.69C611.28,95.6 604.7,94.21 598,94.66C592.53,94.25 587.18,95.44 581.74,95.56M138.63,227.92C138.59,382.63 138.64,537.35 138.6,692.06C138.8,705.15 150.49,717.76 163.99,716.69C409,716.7 654.01,716.7 899.03,716.69C905.79,717.11 912.22,713.49 916.62,708.56C922.06,702.89 923.74,694.61 923.37,686.99L923.37,228.93C922.89,223.79 921.81,218.45 918.77,214.16C914.11,207.58 906.27,202.78 898.03,203.33C873.97,203.42 849.91,203.23 825.85,203.43C826.29,205.09 826.69,206.78 827.53,208.3C841.63,235.59 850.51,265.53 853.95,296.03C854.82,300.64 854.19,305.4 855.27,309.99C855.72,320 855.69,330.05 855.29,340.05C854.13,345.22 854.85,350.57 853.65,355.74C846.02,422.46 810.37,485.27 757.54,526.61C724.15,553.15 683.98,571.09 641.93,578.19C629.72,580.22 617.39,581.78 605,581.58C594.39,581.43 583.7,582.06 573.17,580.55C534.94,576.98 497.76,564.15 464.93,544.31C435.07,556.52 405.03,568.3 375.11,580.36C369.7,582.7 362.54,582.16 358.57,577.41C354.67,573.27 354.46,566.83 356.56,561.8C367.9,533.8 378.99,505.7 390.28,477.69C390.98,476.3 390.2,474.88 389.38,473.77C361.98,435.66 345.21,389.84 342.26,342.97C341.09,337.39 341.7,331.66 341.49,326C341.67,319.69 341.09,313.31 342.25,307.08C344.45,270.92 355.02,235.43 371.99,203.47C302.65,203.18 233.31,203.41 163.97,203.35C150.51,202.47 138.96,214.83 138.63,227.92M422.49,744.44C422.71,753.69 421.37,762.85 420.56,772.04C416.64,805.32 407.48,839.09 387.35,866.43C384.2,871.05 379.97,874.8 376.84,879.42C479.6,879.56 582.38,879.56 685.14,879.43C682.02,875.05 678.06,871.35 674.96,866.96C663.72,851.97 655.84,834.7 650.36,816.84C643.45,793.37 639.9,768.93 639.47,744.49C567.14,744.29 494.81,744.39 422.49,744.44Z" style="fill-rule:nonzero;"/>
        <path d="M593.4,204.01C596.64,202.97 600.37,202.97 603.61,203.98C656.28,226.9 708.93,249.86 761.59,272.78C765.77,274.51 770.62,276.23 772.67,280.64C775.02,284.55 775.15,289.58 772.82,293.53C770.03,299.41 763.2,300.89 757.82,303.4C751.76,306.22 745.42,308.45 739.54,311.64C739.69,332.42 739.56,353.21 739.61,374C740.02,384.96 736.02,395.9 729.35,404.53C720.14,416.59 706.65,424.46 692.92,430.36C667.93,440.75 640.84,444.74 614.01,446.34C596.99,446.62 579.89,446.87 563.01,444.56C542.87,442.43 522.79,438.07 504.03,430.3C489.65,424.17 475.66,415.66 466.46,402.72C461.52,395.78 458.49,387.52 457.55,379.08C457.42,356.57 457.43,334.07 457.55,311.56C448.64,307.12 439.27,303.69 430.29,299.38C426.66,297.71 423.99,294.33 423.07,290.45C421.43,286.17 423.52,281.6 426.18,278.24C429.29,274.75 434.01,273.58 438.11,271.66C489.86,249.08 541.65,226.58 593.4,204.01M591.12,234.67C551.61,251.77 512.22,269.16 472.67,286.15C471.84,286.17 470.68,287.63 471.92,287.97C513.19,305.98 554.53,323.87 595.78,341.96C597.22,342.65 598.96,343.13 600.47,342.3C638.25,325.82 676.06,309.39 713.84,292.89C717.97,291 722.42,289.69 726.14,287C683.75,268.48 641.29,250.1 598.91,231.55C596.16,232.07 593.74,233.7 591.12,234.67M484.58,323.29C484.42,340.52 484.53,357.75 484.52,374.97C485.06,385.11 492.87,392.96 500.99,398.11C517.03,408.12 535.69,412.9 554.16,416.03C562.41,417.27 570.7,418.52 579.07,418.61C589.64,420.13 600.37,419.27 611.02,419.41C619.36,418.27 627.83,418.56 636.14,417.01C653.55,414.67 670.94,410.7 686.91,403.22C695.48,398.89 704.36,393.72 709.37,385.21C711.4,381.86 712.7,378 712.5,374.04C712.43,357.33 712.57,340.61 712.43,323.9C711.18,324.11 709.96,324.39 708.76,324.74C673.9,340 638.98,355.12 604.11,370.34C599.32,372.6 593.9,371.21 589.47,368.82C554.51,353.64 519.65,338.2 484.58,323.29Z" style="fill-rule:nonzero;"/>
        <path d="M304.36,622.4C309.49,615.1 317.53,608.56 326.95,609.22C332.74,608.71 338.63,610.04 343.32,613.56C346.64,615.91 349.09,619.19 351.82,622.14C354.14,622.74 356.61,622.29 358.98,622.42C524.34,622.41 689.7,622.41 855.06,622.42C864.06,621.44 871.68,631.77 868.41,640.09C866.64,645.75 860.93,649.86 854.97,649.47C687.31,649.45 519.64,649.5 351.98,649.45C346.61,656.75 338.58,663.3 328.99,662.69C319.2,663.66 309.65,657.95 304.83,649.57C271.59,649.3 238.35,649.64 205.11,649.4C197.03,649.07 190.86,640.21 193.18,632.53C194.65,626.89 199.98,622.22 205.94,622.43C238.75,622.37 271.55,622.43 304.36,622.4Z" style="fill-rule:nonzero;"/>
    </g>
</svg>
