<?xml version="1.0" encoding="UTF-8" standalone="no"?>
<!DOCTYPE svg PUBLIC "-//W3C//DTD SVG 1.1//EN" "http://www.w3.org/Graphics/SVG/1.1/DTD/svg11.dtd">
<svg width="100%" height="100%" viewBox="0 0 1024 832" version="1.1" xmlns="http://www.w3.org/2000/svg" xmlns:xlink="http://www.w3.org/1999/xlink" xml:space="preserve" xmlns:serif="http://www.serif.com/" style="fill-rule:evenodd;clip-rule:evenodd;stroke-linejoin:round;stroke-miterlimit:2;">
    <g transform="matrix(1,0,0,1,0,-128)">
        <path d="M704,256.01C758.56,213.35 813.12,170.68 867.66,128C915.6,167.22 963.52,206.47 1011.45,245.7C1015.59,248.97 1019.39,252.71 1024,255.35L1024,255.7C1005.36,256.38 986.7,255.82 968.06,256C944.04,256 920.02,256.01 896,256C896.01,362.66 896.01,469.33 896,576C874.66,576 853.33,576.01 832,576C831.99,469.33 831.99,362.66 832,256C789.33,256.02 746.67,255.99 704,256.01Z" style="fill-rule:nonzero;"/>
    </g>
    <g transform="matrix(1,0,0,1,0,-128)">
        <path d="M281.46,320.68C283.95,320.18 286.49,320.03 289.03,320L735.02,320C743.73,319.8 752.52,323.14 758.63,329.42C766,336.69 769.4,347.68 767.43,357.84C764.97,372.62 750.96,384.25 735.98,383.98C587,384.03 438.01,383.99 289.03,384C279.79,384.25 270.55,380.39 264.36,373.52C257.14,365.75 254.32,354.27 257.02,344.03C259.87,332.45 269.77,323.02 281.46,320.68Z" style="fill-rule:nonzero;"/>
    </g>
    <g transform="matrix(1,0,0,1,0,-128)">
        <path d="M284.14,448.26C300.41,447.64 316.72,448.18 333.01,447.99C467.35,448.02 601.7,447.97 736.05,448.01C753.12,447.59 768.41,462.92 767.97,479.98C768.44,497.06 753.13,512.39 736.05,511.98C587.05,512.04 438.04,511.98 289.04,512.01C279.33,512.28 269.64,507.98 263.45,500.48C255.28,490.95 253.68,476.47 259.55,465.38C264.28,456.1 273.77,449.41 284.14,448.26Z" style="fill-rule:nonzero;"/>
    </g>
    <g transform="matrix(1,0,0,1,0,-128)">
        <path d="M127.98,511.98C149.32,512.01 170.66,512 192,511.99C192.01,618.66 192,725.33 192.01,832C234.66,832 277.32,831.98 319.98,832.01C266.67,874.68 213.32,917.32 160.01,960C109.87,919.8 59.65,879.71 9.49,839.54C6.48,837.03 3.47,834.48 0,832.62L0,832.23C13.68,831.75 27.38,832.1 41.07,832C70.04,831.99 99.01,832 127.99,831.99C128,725.32 128.01,618.65 127.98,511.98Z" style="fill-rule:nonzero;"/>
    </g>
    <g transform="matrix(1,0,0,1,0,-128)">
        <path d="M281.45,576.68C283.93,576.18 286.46,576.03 288.99,576L735.04,576C744.89,575.72 754.76,580.16 760.87,587.92C769.08,597.79 770.29,612.73 763.79,623.79C758.14,633.99 746.59,640.4 734.96,640C586.3,640 437.63,640.01 288.96,640C281.4,640.16 273.82,637.68 267.95,632.89C259.1,625.92 254.54,614.06 256.41,602.95C258.29,590.13 268.75,579.2 281.45,576.68Z" style="fill-rule:nonzero;"/>
    </g>
    <g transform="matrix(1,0,0,1,0,-128)">
        <path d="M284.13,704.26C301.07,703.64 318.04,704.18 334.99,703.99C468.67,704.02 602.34,703.96 736.01,704.02C752.74,703.59 767.84,718.27 767.95,734.98C768.9,751.64 754.78,767.24 738.1,767.88C724.08,768.17 710.05,767.91 696.02,768C560,767.99 423.98,768.03 287.96,767.99C271.63,768.31 256.7,754.34 256.09,737.99C254.64,721.64 267.81,705.84 284.13,704.26Z" style="fill-rule:nonzero;"/>
    </g>
</svg>
