<?xml version="1.0" encoding="UTF-8" standalone="no"?>
<!DOCTYPE svg PUBLIC "-//W3C//DTD SVG 1.1//EN" "http://www.w3.org/Graphics/SVG/1.1/DTD/svg11.dtd">
<svg width="100%" height="100%" viewBox="0 0 678 746" version="1.1" xmlns="http://www.w3.org/2000/svg" xmlns:xlink="http://www.w3.org/1999/xlink" xml:space="preserve" xmlns:serif="http://www.serif.com/" style="fill-rule:evenodd;clip-rule:evenodd;stroke-linejoin:round;stroke-miterlimit:2;">
    <g transform="matrix(1,0,0,1,-173.266,-139.264)">
        <path d="M213.1,139.73C217.36,139.15 221.68,139.28 225.97,139.27C407.97,139.28 589.96,139.25 771.96,139.28C784.99,139.08 797.98,144.65 806.67,154.38C814.46,162.89 818.76,174.42 818.6,185.96C818.63,290.56 818.57,395.16 818.63,499.76C806.69,498.2 794.46,503.3 786.59,512.27C786.63,403.5 786.6,294.74 786.61,185.97C787.17,177.98 779.98,170.79 772.02,171.28C588,171.25 403.97,171.27 219.95,171.27C211.97,170.76 204.71,177.93 205.27,185.94C205.28,314.98 205.24,444.02 205.29,573.06C204.86,580.97 212.06,587.96 219.94,587.46C345.76,587.49 471.58,587.43 597.4,587.49C603.91,596.03 612.12,603.18 621.28,608.76C621.27,612.33 621.28,615.9 621.3,619.47C487.52,619.46 353.75,619.47 219.97,619.46C207.51,619.63 195.06,614.57 186.39,605.59C177.93,597.06 173.15,585.09 173.28,573.08C173.26,444.04 173.27,315 173.27,185.96C173.12,174.64 177.22,163.3 184.79,154.85C192.01,146.64 202.24,141.11 213.1,139.73Z" style="fill:rgb(61,61,61);fill-rule:nonzero;"/>
    </g>
    <g transform="matrix(1,0,0,1,-173.266,-139.264)">
        <path d="M433.37,276.4C436.81,274.46 440.77,276.3 443.77,278.24C491.82,308.86 539.85,339.52 587.9,370.16C591.09,372.09 594.22,375.06 594.37,379.05C594.55,383.09 591.55,386.34 588.34,388.34C540.29,418.99 492.26,449.65 444.19,480.26C441.08,482.25 437,484.43 433.38,482.37C430.12,480.51 429.5,476.41 429.49,473C429.49,410.65 429.48,348.3 429.5,285.95C429.48,282.48 430.05,278.29 433.37,276.4Z" style="fill:rgb(61,61,61);fill-rule:nonzero;"/>
    </g>
    <g transform="matrix(1,0,0,1,-173.266,-139.264)">
        <path d="M648.95,370.96C654.57,365.23 663.56,363.28 671.09,366.03C679.68,368.96 685.78,377.86 685.22,386.95C685.03,395.22 679.47,402.7 671.95,405.91C671.91,423.23 671.95,440.55 671.93,457.87C666.6,457.86 661.27,457.87 655.95,457.86C655.9,440.54 655.98,423.22 655.91,405.9C649.74,403.15 644.67,397.7 643.21,391.02C641.43,383.93 643.69,376.03 648.95,370.96Z" style="fill:rgb(61,61,61);fill-rule:nonzero;"/>
    </g>
    <g transform="matrix(1,0,0,1,-173.266,-139.264)">
        <path d="M638.7,473.69C652.48,468.06 668.15,467.32 682.45,471.38C696.37,475.28 708.94,483.8 717.74,495.28C728.43,508.97 733.49,526.89 731.51,544.16C729.67,561.77 720.26,578.17 706.62,589.33C706.55,576.21 706.64,563.09 706.57,549.97C706.49,545.58 708.06,541.35 707.92,536.95C707.99,524.72 702.69,512.59 693.61,504.38C684.15,495.54 670.63,491.4 657.84,493.25C641.53,495.38 627.1,507.5 622.12,523.17C619.49,530.86 619.48,539.18 621.16,547.08C621.45,561.15 621.21,575.24 621.27,589.32C610.45,580.43 602.18,568.34 598.43,554.81C594.18,539.75 595.43,523.22 601.9,508.98C609.01,493.06 622.49,480.11 638.7,473.69Z" style="fill:rgb(61,61,61);fill-rule:nonzero;"/>
    </g>
    <g transform="matrix(1,0,0,1,-173.266,-139.264)">
        <path d="M637.31,538.96C637.08,525.17 649.18,512.74 662.98,512.58C677.09,511.69 690.27,523.85 690.52,537.98C690.68,575.98 690.53,613.99 690.6,652C729.07,652.02 767.53,651.94 805.99,652.04C817.25,652.47 829.59,653.11 838.91,660.21C847,666.52 849.1,677.32 849.95,686.98C851.01,701.95 850.45,716.98 850.7,731.97C850.86,760.88 849.38,790.19 840.96,818.03C833.55,840.76 823.8,862.66 814.64,884.72C764.41,884.74 714.18,884.73 663.95,884.73C661.32,868.36 658.93,851.74 652.7,836.27C648.56,825.92 642.05,816.67 634.37,808.64C623.4,797.14 611,787.14 598.96,776.8C585.17,765.02 570.47,754.21 557.96,741.02C552.84,735.29 547.51,729.21 545.53,721.6C544.3,717.07 545.34,711.98 548.54,708.5C554.85,701.51 564.66,698.18 573.97,699.27C587.56,700.79 599.93,707.4 611.26,714.71C620.46,720.69 629,727.61 637.28,734.79C637.3,669.51 637.25,604.24 637.31,538.96Z" style="fill:rgb(61,61,61);fill-rule:nonzero;"/>
    </g>
    <g transform="matrix(1,0,0,1,-173.266,-139.264)">
        <path d="M493.04,530.04C495.92,520.95 505.46,514.58 514.97,515.58C522.93,516.06 529.91,521.58 533.06,528.78C550.38,528.83 567.69,528.77 585.01,528.81C585.07,534.13 585.01,539.46 585.01,544.79C567.69,544.82 550.38,544.76 533.06,544.82C530.71,549.92 526.69,554.36 521.4,556.47C513.87,559.68 504.55,558.03 498.67,552.31C492.65,546.82 490.39,537.73 493.04,530.04Z" style="fill:rgb(61,61,61);fill-rule:nonzero;"/>
    </g>
    <g transform="matrix(1,0,0,1,-173.266,-139.264)">
        <path d="M804.22,518.22C811.53,513.99 821.38,514.72 827.9,520.13C834.25,525.08 837.26,533.8 835.38,541.62C833.38,550.94 824.47,558.15 814.93,558.1C806.27,558.36 798.18,552.7 794.85,544.82C777.53,544.77 760.21,544.82 742.89,544.79C742.85,539.46 742.87,534.14 742.9,528.81C760.21,528.77 777.52,528.82 794.84,528.79C796.85,524.44 799.95,520.51 804.22,518.22Z" style="fill:rgb(61,61,61);fill-rule:nonzero;"/>
    </g>
    <g transform="matrix(1,0,0,1,-173.266,-139.264)">
        <path d="M786.6,561.38C794.51,570.28 806.7,575.37 818.61,573.81C818.61,592.25 806.46,609.89 789.19,616.36C783.08,618.78 776.47,619.57 769.93,619.47C748.82,619.46 727.71,619.48 706.61,619.46C706.58,615.89 706.57,612.32 706.6,608.76C715.79,603.2 723.94,595.96 730.51,587.46C743.67,587.48 756.84,587.45 770.01,587.48C775.17,587.84 780.78,586.2 783.84,581.78C788.21,575.89 786.12,568.15 786.6,561.38Z" style="fill:rgb(61,61,61);fill-rule:nonzero;"/>
    </g>
    <g transform="matrix(1,0,0,1,-173.266,-139.264)">
        <path d="M271.29,633.24C278.98,628.26 289.86,629.12 296.65,635.3C301.42,639.32 303.87,645.5 304.03,651.66C409.78,651.67 515.52,651.65 621.27,651.68C621.27,661.36 621.34,671.04 621.22,680.72C515.5,680.6 409.77,680.69 304.04,680.67C303.87,687.22 301.01,693.77 295.72,697.77C288.83,703.32 278.41,703.82 271.04,698.9C264.86,695.03 261.29,687.88 261.18,680.68C237.21,680.64 213.24,680.68 189.27,680.66C189.26,671 189.28,661.33 189.27,651.66C213.24,651.66 237.22,651.69 261.19,651.64C261.26,644.32 264.98,637.08 271.29,633.24Z" style="fill:rgb(61,61,61);fill-rule:nonzero;"/>
    </g>
</svg>
