<?xml version="1.0" encoding="UTF-8"?>
<!-- Generator: Adobe Illustrator 15.0.0, SVG Export Plug-In . SVG Version: 6.00 Build 0)  -->
<!DOCTYPE svg PUBLIC "-//W3C//DTD SVG 1.1//EN" "http://www.w3.org/Graphics/SVG/1.1/DTD/svg11.dtd">
<svg version="1.1" id="svg2" xmlns:cc="http://creativecommons.org/ns#" xmlns:svg="http://www.w3.org/2000/svg" xmlns:rdf="http://www.w3.org/1999/02/22-rdf-syntax-ns#" xmlns:dc="http://purl.org/dc/elements/1.1/" xmlns="http://www.w3.org/2000/svg" xmlns:xlink="http://www.w3.org/1999/xlink" x="0px" y="0px" width="250px" height="128px" viewBox="0 0 250 128" enable-background="new 0 0 250 128" xml:space="preserve">
<g id="g10" transform="matrix(1.3333333,0,0,-1.3333333,0,553.86667)">
	<g id="g12" transform="scale(0.1)">
		<path id="path14" fill="#A2789C" d="M67.291,3762.818c-15.502,3.482-19.303,5.698-19.303,10.755v0.322    c0,4.116,3.644,7.119,11.082,7.119c9.807,0,20.885-3.644,31.011-10.92l15.344,21.676c-12.023,9.653-26.737,14.718-45.568,14.718    c-26.58,0-42.872-14.875-42.872-35.442v-0.322c0-22.621,18.193-29.264,41.766-34.644c15.194-3.644,18.831-6.013,18.831-10.763    v-0.315c0-4.746-4.431-7.595-12.814-7.595c-12.817,0-24.844,4.585-35.918,13.286l-17.087-20.409    c13.762-12.18,32.278-18.354,51.896-18.354c26.898,0,44.777,13.455,44.777,36.079v0.319    C108.431,3749.056,92.611,3757.284,67.291,3762.818"/>
		<path id="path16" fill="#003A70" d="M214.768,3725.054c-9.218-8.599-17.622-13.931-31.011-13.931    c-20.182,0-35.398,16.377-35.398,38.089v0.315c0,21.621,15.216,37.929,35.398,37.929c10.876,0,20.2-4.149,30.223-13.458    l0.875-0.813l14,16.132l-0.795,0.758c-9.093,8.69-21.449,17.567-44.15,17.567c-33.219,0-58.271-25.119-58.271-58.429v-0.318    c0-33.131,24.708-58.114,57.48-58.114c23.423,0,36.277,10.097,45.765,19.973l0.78,0.817l-14.077,14.253L214.768,3725.054"/>
		<path id="path18" fill="#003A70" d="M265.536,3749.528c0,21.621,15.557,37.929,36.189,37.929c20.808,0,36.5-16.439,36.5-38.244    v-0.318c0-21.53-15.557-37.771-36.189-37.771c-20.808,0-36.5,16.377-36.5,38.089V3749.528z M302.036,3807.642    c-33.204,0-59.216-25.664-59.216-58.429v-0.318c0-33.131,25.32-58.114,58.905-58.114c33.208,0,59.22,25.664,59.22,58.433v0.315    C360.945,3782.659,335.621,3807.642,302.036,3807.642"/>
		<path id="path20" fill="#003A70" d="M370.1,3785.395h35.131v-92.717h21.925v92.717h35.127v20.351H370.1V3785.395"/>
		<path id="path22" fill="#003A70" d="M479.443,3785.395h35.127v-92.717h21.929v92.717h35.131v20.351h-92.186V3785.395"/>
		<path id="path24" fill="#003A70" d="M597.806,3692.677h21.768v113.068h-21.768V3692.677"/>
		<path id="path26" fill="#003A70" d="M697.961,3759.192c-21.676,5.142-25.536,8.738-25.536,16.282v0.318    c0,7.167,6.786,11.979,16.882,11.979c9.697,0,19.303-3.651,29.374-11.162l0.948-0.707l11.759,16.564l-0.85,0.681    c-11.884,9.543-25.269,14.18-40.917,14.18c-22.943,0-38.969-13.686-38.969-33.278v-0.315c0-20.969,13.843-28.411,37.764-34.193    c20.5-4.731,24.104-8.866,24.104-15.806v-0.315c0-7.76-7.251-12.773-18.468-12.773c-12.378,0-22.928,4.358-34.211,14.121    l-0.886,0.762l-13.184-15.678l0.839-0.743c13.198-11.785,29.443-18.018,46.97-18.018c24.73,0,40.712,13.436,40.712,34.226v0.318    C734.293,3743.192,723.768,3752.919,697.961,3759.192"/>
		<path id="path28" fill="#003A70" d="M834.046,3805.745v-46.047h-50.537v46.047h-21.771v-113.068h21.771l-0.311,46.677h50.849    v-46.677h21.771v113.068H834.046"/>
		<path id="path30" fill="#A2789C" d="M83.119,3598.502c0-8.694-6.804-14.546-17.563-14.546H50.841v29.268h14.553    c10.92,0,17.725-4.907,17.725-14.399V3598.502z M67.771,3639.02H20.145v-110.764h30.696v31.648h15.344    c27.374,0,47.468,13.77,47.468,40.027v0.315C113.654,3624.621,95.618,3639.02,67.771,3639.02"/>
		<path id="path32" fill="#003A70" d="M210.289,3575.248c0-19.05-9.478-29.546-26.689-29.546c-17.314,0-26.851,10.774-26.851,30.33    v64.131h-21.771v-64.915c0-31.707,17.607-49.885,48.303-49.885c31,0,48.783,18.53,48.783,50.83v63.97h-21.775V3575.248"/>
		<path id="path34" fill="#003A70" d="M315.883,3546.662h-31.124v28.066h29.7c9.866,0,21.628-2.373,21.628-13.726v-0.308    C336.09,3548.478,323.427,3546.662,315.883,3546.662z M284.758,3593.493v27.114h26.854c11.631,0,18.303-4.702,18.303-12.92v-0.322    c0-12.07-12.36-13.872-19.728-13.872H284.758z M356.979,3558.952c0,13.066-6.493,21.738-20.383,27.122    c9.562,5.684,14.213,13.711,14.213,24.463v0.308c0,7.668-2.545,13.945-7.778,19.167c-6.639,6.65-16.934,10.151-29.773,10.151    h-50.837v-113.071h52.423c26.382,0,42.136,11.799,42.136,31.545V3558.952"/>
		<path id="path36" fill="#003A70" d="M463.466,3547.13h-58.228v93.032h-21.771v-113.071h79.999V3547.13"/>
		<path id="path38" fill="#003A70" d="M510.828,3640.163h-21.771v-113.071h21.771V3640.163"/>
		<path id="path40" fill="#003A70" d="M594.785,3525.202c23.427,0,36.281,10.093,45.769,19.98l0.776,0.806l-14.073,14.26    l-0.824-0.769c-9.218-8.599-17.618-13.938-31.014-13.938c-20.178,0-35.394,16.377-35.394,38.093v0.322    c0,21.621,15.216,37.925,35.394,37.925c10.88,0,20.204-4.16,30.227-13.462l0.875-0.813l14,16.135l-0.791,0.762    c-9.097,8.687-21.456,17.563-44.154,17.563c-33.219,0-58.271-25.122-58.271-58.433v-0.322    C537.305,3550.185,562.013,3525.202,594.785,3525.202"/>
		<path id="path42" fill="#A2789C" d="M67.291,3431.657c-15.502,3.486-19.303,5.698-19.303,10.767v0.308    c0,4.116,3.644,7.134,11.082,7.134c9.807,0,20.885-3.647,31.011-10.928l15.344,21.68c-12.023,9.653-26.737,14.722-45.568,14.722    c-26.58,0-42.872-14.883-42.872-35.449v-0.322c0-22.617,18.193-29.268,41.766-34.644c15.194-3.647,18.831-6.013,18.831-10.759    v-0.322c0-4.746-4.431-7.595-12.814-7.595c-12.817,0-24.844,4.585-35.918,13.293l-17.087-20.413    c13.762-12.173,32.278-18.354,51.896-18.354c26.898,0,44.777,13.447,44.777,36.079v0.322    C108.431,3417.902,92.611,3426.12,67.291,3431.657"/>
		<path id="path44" fill="#003A70" d="M155.164,3408.673h55.536v19.702h-55.536v26.499h62.659v19.717h-84.43V3361.52h85.221v19.717    h-63.45V3408.673"/>
		<path id="path46" fill="#003A70" d="M319.64,3437.355v-0.322c0-10.54-8.489-17.351-21.628-17.351h-27.323v34.871h27.166    C311.902,3454.552,319.64,3448.444,319.64,3437.355z M341.726,3438.146v0.322c0,9.763-3.285,18.311-9.525,24.712    c-7.628,7.471-18.962,11.411-32.765,11.411h-50.522V3361.52h21.775v38.606h22.614l27.209-38.606h25.946l-30.282,42.451    C332.67,3409.281,341.726,3421.359,341.726,3438.146"/>
		<path id="path48" fill="#003A70" d="M413.522,3391.476l-32.593,83.115h-24.034l47-113.862h18.79l46.838,113.862h-23.558    L413.522,3391.476"/>
		<path id="path50" fill="#003A70" d="M493.557,3361.52h21.764v113.071h-21.764V3361.52"/>
		<path id="path52" fill="#003A70" d="M633.633,3393.893c-9.214-8.599-17.622-13.916-31.014-13.916    c-20.178,0-35.398,16.362-35.398,38.071v0.322c0,21.621,15.22,37.925,35.398,37.925c10.876,0,20.2-4.146,30.223-13.462    l0.875-0.806l14,16.128l-0.791,0.762c-9.097,8.687-21.453,17.571-44.15,17.571c-33.223,0-58.275-25.129-58.275-58.44v-0.308    c0-33.135,24.716-58.125,57.48-58.125c23.427,0,36.284,10.107,45.773,19.988l0.78,0.806l-14.084,14.26L633.633,3393.893"/>
		<path id="path54" fill="#003A70" d="M694.761,3408.673h55.532v19.702h-55.532v26.499h62.659v19.717h-84.43V3361.52h85.217v19.717    h-63.446V3408.673"/>
		<path id="path56" fill="#003A70" d="M830.109,3428.039c-21.676,5.142-25.532,8.73-25.532,16.274v0.322    c0,7.163,6.786,11.982,16.882,11.982c9.694,0,19.299-3.662,29.374-11.162l0.948-0.718l11.755,16.567l-0.85,0.688    c-11.88,9.536-25.261,14.18-40.909,14.18c-22.943,0-38.969-13.689-38.969-33.281v-0.315c0-20.969,13.843-28.411,37.76-34.197    c20.493-4.731,24.104-8.862,24.104-15.791v-0.322c0-7.764-7.247-12.773-18.464-12.773c-12.382,0-22.932,4.351-34.212,14.114    l-0.886,0.769l-13.187-15.674l0.835-0.754c13.198-11.785,29.443-18.01,46.974-18.01c24.73,0,40.712,13.433,40.712,34.219v0.322    C866.444,3412.035,855.919,3421.754,830.109,3428.039"/>
		<path id="path58" fill="#A2789C" d="M92.238,3252.155c0-15.981-11.235-29.575-28.004-29.575c-16.934,0-28.48,13.916-28.48,29.897    v0.308c0,15.996,11.232,29.597,28.162,29.597c16.934,0,28.323-13.762,28.323-29.905V3252.155z M64.23,3310.075    c-34.175,0-59.806-25.796-59.806-57.598v-0.322c0-31.802,25.316-57.275,59.491-57.275c34.175,0,59.806,25.796,59.806,57.598v0.315    C123.721,3284.601,98.408,3310.075,64.23,3310.075"/>
		<path id="path60" fill="#003A70" d="M201.339,3257.619l-33.069,51.387h-22.511v-113.064h21.453v76.458l32.875-49.248h1.871    l33.193,49.57v-76.78h21.771v113.064h-22.511L201.339,3257.619"/>
		<path id="path62" fill="#003A70" d="M362.692,3229.845v-0.308c0-12.217-12.656-14.041-20.204-14.041h-31.124v28.074h29.7    C350.933,3243.571,362.692,3241.183,362.692,3229.845z M311.364,3262.335v27.114h26.851c11.635,0,18.307-4.702,18.307-12.92    v-0.322c0-12.07-12.363-13.872-19.731-13.872H311.364L311.364,3262.335z M364.083,3254.909    c9.558,5.698,14.209,13.726,14.209,24.478v0.308c0,7.661-2.542,13.931-7.775,19.167c-6.643,6.643-16.937,10.144-29.773,10.144    h-50.837v-113.064h52.423c26.382,0,42.133,11.785,42.133,31.545v0.308C384.463,3240.854,377.974,3249.518,364.083,3254.909"/>
		<path id="path64" fill="#003A70" d="M484.53,3244.091c0-19.05-9.478-29.539-26.689-29.539c-17.314,0-26.854,10.767-26.854,30.322    v64.131h-21.771v-64.915c0-31.707,17.607-49.885,48.303-49.885c31.003,0,48.783,18.53,48.783,50.83v63.97H484.53V3244.091"/>
		<path id="path66" fill="#003A70" d="M559.318,3288.974h20.68c21.958,0,37.295-15.007,37.295-36.497v-0.322    c0-21.636-14.985-36.182-37.295-36.182h-20.68V3288.974z M579.998,3309.005h-42.451v-113.064h42.451    c34.775,0,60.015,23.782,60.015,56.536v0.308C640.012,3285.363,614.773,3309.005,579.998,3309.005"/>
		<path id="path68" fill="#003A70" d="M710.511,3262.467c-21.676,5.127-25.532,8.73-25.532,16.274v0.322    c0,7.163,6.782,11.968,16.879,11.968c9.694,0,19.303-3.647,29.374-11.162l0.948-0.703l11.755,16.567l-0.846,0.674    c-11.884,9.551-25.261,14.18-40.913,14.18c-22.943,0-38.972-13.667-38.972-33.267v-0.322c0-20.962,13.846-28.403,37.767-34.189    c20.493-4.731,24.1-8.862,24.1-15.806v-0.322c0-7.756-7.247-12.759-18.464-12.759c-12.385,0-22.939,4.351-34.211,14.114    l-0.886,0.769l-13.184-15.688l0.835-0.74c13.198-11.785,29.443-18.01,46.974-18.01c24.727,0,40.708,13.418,40.708,34.211v0.322    C746.843,3246.457,736.318,3256.183,710.511,3262.467"/>
		<path id="path70" fill="#003A70" d="M829.841,3257.619l-33.069,51.387h-22.518v-113.064h21.456v76.458l32.879-49.248h1.871    l33.193,49.57v-76.78h21.771v113.064h-22.511L829.841,3257.619"/>
		<path id="path72" fill="#003A70" d="M981.087,3242.238h-34.622l17.241,40.225L981.087,3242.238z M954.243,3309.796    l-49.746-113.855h22.467l11.393,26.741h50.845l11.228-26.741h23.101l-49.746,113.855H954.243"/>
		<path id="path74" fill="#003A70" d="M1123.316,3309.005v-74.355l-57.275,73.916l-0.337,0.439h-19.761v-113.064h21.46v76.575    l59.004-76.128l0.337-0.447h18.025v113.064H1123.316"/>
		<path id="path76" fill="#003A70" d="M1144.995,3686.73h233.525c128.774,0,233.54,104.762,233.54,233.537    c0,128.771-104.766,233.536-233.54,233.536c-128.767,0-233.525-104.766-233.525-233.536V3686.73"/>
		<path id="path78" fill="#A2789C" d="M1082.864,3626.759v294.987c0,0.417,0.007,0.831,0.007,1.245    c-83.459-33.208-142.639-114.749-142.639-209.905v-225.854h225.85c93.977,0,174.705,57.7,208.674,139.526H1082.864"/>
		<path id="path80" fill="#66a9b5" d="M1644.727,3564.298h225.85v225.85c0,119.718-93.64,217.936-211.516,225.355    c10.166-29.821,15.688-61.769,15.688-94.984c0-129.327-83.65-239.48-199.709-279.199    C1516.472,3594.152,1577.161,3564.298,1644.727,3564.298"/>
	</g>
</g>
</svg>
